<svg width="48" height="48" viewBox="0 0 48 48" fill="none" xmlns="http://www.w3.org/2000/svg">
<rect width="48" height="48" fill="white"/>
<path d="M18.8766 43.706C23.8556 38.5361 24.5687 24.6396 15.4567 18.4768C14.864 18.0759 14.1598 17.8981 13.4511 17.8981H7.57335C6.97062 17.8981 6.34748 17.9577 5.83437 18.284C5.35813 18.5868 5.10106 18.9711 4.91805 19.5719C4.82566 19.8753 4.7991 20.1951 4.7991 20.513V29.9049C4.7991 30.445 4.82835 30.9929 5.01104 31.499C5.33542 32.3976 5.86485 32.7914 6.94818 33.0083C7.1705 33.0528 7.39778 33.0674 7.62425 33.0674H16.1886V42.3863C16.1886 42.8662 16.215 43.3746 16.5114 43.7445C16.5634 43.8094 16.6189 43.8701 16.6767 43.9267C17.298 44.536 18.2724 44.3333 18.8766 43.706Z" fill="#005080"/>
<path d="M29.1308 43.706C24.1517 38.5361 23.4387 24.6396 32.5507 18.4768C33.1434 18.0759 33.8476 17.8981 34.5563 17.8981H40.434C41.0368 17.8981 41.6599 17.9577 42.173 18.284C42.6493 18.5868 42.9063 18.9711 43.0893 19.5719C43.1817 19.8753 43.2083 20.1951 43.2083 20.513V29.9049C43.2083 30.445 43.179 30.9929 42.9963 31.499C42.672 32.3976 42.1425 32.7914 41.0592 33.0083C40.8369 33.0528 40.6096 33.0674 40.3831 33.0674H31.8188V42.3863C31.8188 42.8662 31.7924 43.3746 31.496 43.7445C31.444 43.8094 31.3885 43.8701 31.3307 43.9267C30.7094 44.536 29.7349 44.3333 29.1308 43.706Z" fill="#005080"/>
<path d="M20.0075 18.2141C18.7265 17.0104 17.8115 16.2882 15.9815 15.566V6.57448C15.9815 5.15851 17.094 4.01064 18.4665 4.01064H29.2347C30.6071 4.01064 31.7197 5.15851 31.7197 6.57448V15.566C29.8896 16.2882 28.9746 17.0104 27.6936 18.2141C26.6148 19.2277 24.7041 20.5129 24.1855 20.9693C24.0863 21.0566 23.9699 21.1029 23.8506 21.1029C23.7312 21.1029 23.6148 21.0566 23.5157 20.9693C22.9971 20.5129 21.0863 19.2277 20.0075 18.2141Z" fill="#00916E"/>
<path d="M27.1639 13.625C27.1639 15.395 25.7732 16.8298 24.0576 16.8298C22.3421 16.8298 20.9514 15.395 20.9514 13.625C20.9514 11.8551 22.3421 10.4202 24.0576 10.4202C25.7732 10.4202 27.1639 11.8551 27.1639 13.625Z" fill="white"/>
</svg>
